<svg xmlns="http://www.w3.org/2000/svg" viewBox="-75 -75 150 150"><defs><pattern id="lace" x="-29" y="-29" width="58" height="58" patternUnits="userSpaceOnUse" viewBox="-29 -29 58 58"><path fill="#fff7e8" fill-rule="nonzero" d="M-26.26,5.04L-28.47,7.25L-25.375,10.345L-24.056,9.026L-23.611,9.641L-24.845,10.875L-21.75,13.97L-20.735,12.955L-20.178,13.458L-21.22,14.5L-18.125,17.595L-16.711,16.181L-16.394,16.333L-16.424,16.954L-17.595,18.125L-15.636,20.084L-15.112,21.397L-14.541,22.321L-17.595,25.375L-14.5,28.47L-11.552,25.522L-10.945,25.975L-13.97,29L-15.03,29L-18.125,25.905L-21.22,29L-22.28,29L-25.375,25.905L-28.47,29L-29,29L-29,28.47L-25.905,25.375L-29,22.28L-29,21.22L-25.905,18.125L-29,15.03L-29,13.97L-25.905,10.875L-29,7.78L-29,6.72L-26.583,4.303ZM-9.121,26.928L-8.623,27.097L-7.25,28.47L-6.491,27.711L-5.595,27.875L-6.72,29L-7.78,29L-10.649,26.131ZM0.53,29L-0.53,29L-1.556,27.974L-0.576,27.894L0,28.47L0.856,27.614L1.701,27.445L2.262,27.268ZM29,13.97L29,15.03L25.905,18.125L29,21.22L29,22.28L25.905,25.375L29,28.47L29,29L28.47,29L25.375,25.905L22.28,29L21.22,29L18.125,25.905L15.03,29L13.97,29L10.875,25.905L7.78,29L6.72,29L4.303,26.583L5.04,26.26L7.25,28.47L10.345,25.375L9.026,24.056L9.641,23.611L10.875,24.845L13.97,21.75L12.955,20.735L13.458,20.178L14.5,21.22L17.595,18.125L16.181,16.711L16.333,16.394L16.954,16.424L18.125,17.595L20.084,15.636L21.397,15.112L22.321,14.541L25.375,17.595L28.47,14.5L25.522,11.552L25.975,10.945ZM-24.845,25.375L-21.75,28.47L-18.655,25.375L-21.75,22.28ZM11.405,25.375L14.5,28.47L17.595,25.375L14.5,22.28ZM18.655,25.375L21.75,28.47L24.845,25.375L21.75,22.28ZM5.005,-27.323L7.021,-26.953L8.912,-26.312L10.644,-25.399L12.186,-24.217L13.501,-22.767L14.559,-21.055L15.327,-19.087L15.774,-16.93L15.78,-16.814L15.689,-15.644L15.706,-15.67L15.811,-15.725L16.216,-15.712L16.282,-15.689L18.596,-14.009L20.64,-12.165L22.414,-10.187L23.92,-8.103L25.156,-5.942L26.123,-3.733L26.825,-1.506L27.258,0.712L27.425,2.892L27.323,5.005L26.953,7.021L26.312,8.912L25.399,10.644L24.217,12.186L22.767,13.501L21.055,14.559L19.087,15.327L16.93,15.774L16.814,15.78L15.644,15.689L15.67,15.706L15.725,15.811L15.712,16.216L15.689,16.282L14.009,18.596L12.165,20.64L10.187,22.414L8.103,23.92L5.942,25.156L3.734,26.123L1.506,26.825L-0.712,27.258L-2.892,27.425L-5.005,27.323L-7.021,26.953L-8.912,26.312L-10.644,25.399L-12.186,24.217L-13.501,22.767L-14.559,21.055L-15.327,19.087L-15.774,16.93L-15.78,16.814L-15.689,15.644L-15.706,15.67L-15.811,15.725L-16.216,15.712L-16.282,15.689L-18.596,14.009L-20.64,12.165L-22.414,10.187L-23.92,8.103L-25.156,5.942L-26.123,3.734L-26.825,1.506L-27.258,-0.712L-27.425,-2.892L-27.323,-5.005L-26.953,-7.021L-26.312,-8.912L-25.399,-10.644L-24.217,-12.186L-22.767,-13.501L-21.055,-14.559L-19.087,-15.327L-16.93,-15.774L-16.814,-15.78L-15.644,-15.689L-15.67,-15.706L-15.725,-15.811L-15.712,-16.216L-15.689,-16.282L-14.009,-18.596L-12.165,-20.64L-10.187,-22.414L-8.103,-23.92L-5.942,-25.156L-3.734,-26.123L-1.506,-26.825L0.712,-27.258L2.877,-27.425ZM-5.056,5.431L-6.692,5.691L-8.26,6.188L-9.763,6.937L-11.132,7.931L-12.349,9.182L-13.367,10.695L-14.142,12.464L-14.64,14.515L-14.815,16.823L-14.395,18.847L-13.68,20.66L-12.709,22.218L-11.499,23.54L-10.096,24.609L-8.502,25.44L-6.745,26.03L-4.871,26.369L-2.876,26.462L-0.811,26.3L1.303,25.883L3.414,25.215L5.53,24.286L7.61,23.093L9.6,21.651L11.503,19.941L12.956,18.328L12.38,18.622L11.521,18.965L10.661,19.212L9.811,19.36L8.98,19.404L8.178,19.338L7.419,19.155L7.006,18.982L6.79,19.22L5.408,20.459L3.953,21.51L2.444,22.375L0.901,23.049L-0.653,23.539L-2.202,23.842L-3.722,23.96L-5.195,23.888L-6.603,23.631L-7.921,23.184L-9.128,22.549L-10.201,21.727L-11.119,20.717L-11.856,19.524L-12.392,18.153L-12.708,16.572L-12.574,14.838L-12.194,13.299L-11.599,11.954L-10.821,10.808L-9.891,9.857L-8.841,9.101L-7.701,8.535L-6.502,8.158L-5.273,7.967L-4.043,7.958L-2.842,8.13L-1.699,8.484L-0.645,9.014L0.291,9.724L1.071,10.607L1.665,11.66L2.039,12.876L2.168,14.235L2.118,14.967L2.156,15.584L2.271,16.115L2.453,16.564L2.692,16.927L2.986,17.222L3.328,17.45L3.718,17.612L4.145,17.713L4.614,17.746L5.12,17.718L5.416,17.666L5.11,17.186L4.795,16.396L4.606,15.497L4.547,14.488L4.618,13.453L4.445,11.676L3.957,10.123L3.195,8.788L2.2,7.675L0.997,6.772L-0.363,6.094L-1.862,5.638L-3.44,5.415ZM-3.095,25.375L-2.676,25.794L-2.889,25.811L-4.515,25.735L-4.155,25.375L-4.981,24.549L-3.866,24.604L-3.625,24.845L-3.364,24.584L-2.215,24.495ZM-28.47,21.75L-25.375,24.845L-22.28,21.75L-25.375,18.655ZM-21.22,21.75L-18.125,24.845L-15.03,21.75L-18.125,18.655ZM15.03,21.75L18.125,24.845L21.22,21.75L18.125,18.655ZM22.28,21.75L25.375,24.845L28.47,21.75L25.375,18.655ZM3.325,24.545L3.189,24.604L2.532,24.812L1.303,23.583L2.041,23.261ZM-8.555,23.585L-9.275,24.305L-9.744,24.06L-9.94,23.91L-9.249,23.219ZM9.014,20.053L9.503,20.027L7.78,21.75L8.022,21.992L7.407,22.437L7.25,22.28L6.617,22.913L5.235,23.706L4.396,24.074L6.72,21.75L5.879,20.909L6.438,20.408L7.25,21.22L8.457,20.013ZM-5.243,8.564L-6.391,8.746L-7.498,9.097L-8.553,9.623L-9.519,10.323L-10.374,11.203L-11.09,12.269L-11.635,13.512L-11.987,14.958L-12.037,15.621L-11.902,15.474L-11.549,15.229L-11.12,15.028L-10.628,14.871L-10.079,14.76L-9.485,14.699L-9.088,14.7L-9.393,14.394L-9.767,13.929L-10.075,13.457L-10.311,12.987L-10.47,12.525L-10.536,12.075L-10.51,11.764L-10.475,11.689L-10.261,11.475L-10.183,11.44L-9.786,11.42L-9.363,11.496L-8.918,11.657L-8.46,11.895L-7.992,12.204L-7.53,12.58L-7.249,12.862L-7.249,12.43L-7.184,11.837L-7.069,11.285L-6.904,10.786L-6.689,10.346L-6.417,9.983L-6.179,9.781L-6.101,9.752L-5.799,9.752L-5.719,9.782L-5.424,10.048L-5.179,10.401L-4.978,10.83L-4.821,11.322L-4.71,11.871L-4.649,12.465L-4.65,12.862L-4.344,12.557L-3.879,12.183L-3.407,11.875L-2.937,11.639L-2.474,11.48L-2.025,11.414L-1.714,11.44L-1.639,11.475L-1.425,11.689L-1.39,11.767L-1.369,12.164L-1.446,12.587L-1.607,13.032L-1.845,13.49L-2.154,13.958L-2.53,14.42L-2.812,14.701L-2.38,14.701L-1.786,14.766L-1.235,14.881L-0.736,15.046L-0.296,15.261L0.067,15.533L0.27,15.771L0.299,15.849L0.299,16.151L0.269,16.231L0.002,16.526L-0.351,16.771L-0.78,16.972L-1.272,17.129L-1.821,17.24L-2.415,17.301L-2.812,17.3L-2.507,17.606L-2.133,18.071L-1.825,18.543L-1.589,19.013L-1.43,19.476L-1.364,19.925L-1.39,20.236L-1.425,20.311L-1.639,20.525L-1.717,20.56L-2.114,20.581L-2.537,20.504L-2.982,20.343L-3.44,20.105L-3.908,19.796L-4.37,19.42L-4.651,19.138L-4.651,19.57L-4.716,20.164L-4.831,20.715L-4.996,21.214L-5.211,21.654L-5.483,22.017L-5.721,22.22L-5.799,22.249L-6.101,22.249L-6.181,22.219L-6.476,21.952L-6.721,21.599L-6.922,21.17L-7.079,20.678L-7.19,20.129L-7.251,19.535L-7.25,19.138L-7.556,19.443L-8.021,19.817L-8.493,20.125L-8.963,20.361L-9.425,20.52L-9.875,20.586L-10.186,20.56L-10.261,20.525L-10.475,20.311L-10.51,20.233L-10.53,19.836L-10.454,19.413L-10.293,18.968L-10.055,18.51L-9.746,18.042L-9.37,17.58L-9.088,17.299L-9.52,17.299L-10.113,17.234L-10.665,17.119L-11.164,16.954L-11.604,16.739L-11.967,16.467L-12.09,16.321L-12.11,16.575L-11.813,18.003L-11.309,19.28L-10.626,20.376L-9.78,21.302L-8.78,22.063L-7.666,22.644L-6.432,23.059L-5.114,23.297L-3.712,23.362L-2.262,23.248L-0.779,22.956L0.7,22.488L2.192,21.832L3.645,20.999L5.044,19.986L6.379,18.786L6.47,18.686L6.082,18.417L5.85,18.185L5.166,18.315L4.59,18.344L4.032,18.299L3.508,18.172L3.019,17.961L2.583,17.664L2.21,17.281L1.912,16.815L1.694,16.269L1.562,15.646L1.521,14.945L1.571,14.218L1.449,12.962L1.105,11.871L0.57,10.934L-0.137,10.141L-0.983,9.507L-1.94,9.03L-2.994,8.709L-4.105,8.552ZM3.355,18.804L3.452,18.828L0.53,21.75L0.601,21.821L0.471,21.878L-0.94,22.325L-1.145,22.365L-0.53,21.75L-1.248,21.032L-1.179,20.985L-0.965,20.771L-0.801,20.511L-0.782,20.438L0,21.22L2.697,18.523ZM-7.729,20.741L-7.511,21.446L-7.255,21.97L-7.14,22.135L-7.41,22.044L-7.847,21.817L-7.78,21.75L-8.616,20.914L-8.138,20.669L-7.934,20.536ZM-6.007,17.384L-6.322,17.975L-6.462,18.179L-6.499,18.376L-6.549,18.962L-6.543,19.512L-6.488,20.038L-6.39,20.514L-6.254,20.934L-6.097,21.265L-5.95,21.471L-5.803,21.265L-5.645,20.933L-5.51,20.514L-5.412,20.038L-5.357,19.512L-5.351,18.962L-5.401,18.376L-5.439,18.177L-5.599,17.94L-5.951,17.24ZM-24.845,18.125L-21.75,21.22L-18.655,18.125L-21.75,15.03ZM18.655,18.125L21.75,21.22L24.845,18.125L21.75,15.03ZM-12.409,19.866L-12.286,20.066L-12.901,20.681L-13.098,20.365L-13.253,19.973L-12.624,19.344ZM-6.969,16.939L-7.609,17.133L-7.853,17.18L-8.018,17.291L-8.46,17.663L-8.853,18.065L-9.193,18.484L-9.45,18.874L-9.656,19.277L-9.778,19.623L-9.82,19.87L-9.573,19.828L-9.227,19.706L-8.824,19.5L-8.431,19.241L-8.012,18.9L-7.613,18.51L-7.241,18.068L-7.13,17.904L-7.074,17.62L-6.828,16.878ZM-5.011,17.019L-4.817,17.659L-4.77,17.903L-4.659,18.068L-4.287,18.51L-3.888,18.9L-3.469,19.241L-3.076,19.5L-2.673,19.706L-2.327,19.828L-2.08,19.87L-2.122,19.623L-2.244,19.277L-2.45,18.874L-2.707,18.484L-3.047,18.065L-3.44,17.663L-3.882,17.291L-4.046,17.18L-4.33,17.124L-5.072,16.878ZM4.623,18.993L5.004,18.974L5.096,19.066L4.528,19.558L3.905,18.935ZM-10.798,17.755L-10.391,17.84L-10.632,18.21L-10.859,18.647L-11.19,17.811L-11.23,17.617ZM-9.733,-18.4L-10.464,-18.271L-11.235,-18.046L-11.989,-17.743L-12.776,-17.337L-13.524,-16.863L-14.269,-16.293L-14.988,-15.639L-14.327,-15.586L-12.119,-15.041L-10.19,-14.188L-8.544,-13.071L-7.179,-11.734L-6.094,-10.226L-5.283,-8.589L-4.743,-6.869L-4.469,-5.104L-4.457,-3.34L-4.705,-1.616L-5.213,0.027L-5.976,1.541L-6.997,2.885L-8.269,4.006L-9.785,4.86L-11.532,5.397L-13.483,5.58L-14.525,5.51L-15.406,5.565L-16.152,5.726L-16.78,5.982L-17.289,6.317L-17.377,6.405L-17.256,6.707L-16.967,7.267L-16.636,7.789L-16.24,8.307L-15.78,8.808L-15.751,8.864L-15.713,9.039L-15.749,9.152L-15.88,9.272L-15.985,9.302L-16.175,9.252L-17.792,8.078L-18.224,7.689L-18.391,8.357L-18.441,9.026L-18.4,9.733L-18.271,10.464L-18.046,11.235L-17.743,11.989L-17.337,12.776L-16.863,13.524L-16.295,14.267L-15.639,14.988L-15.586,14.327L-15.041,12.119L-14.188,10.19L-13.071,8.544L-11.734,7.179L-10.226,6.094L-8.589,5.283L-6.869,4.743L-5.104,4.469L-3.34,4.457L-1.616,4.705L0.027,5.213L1.541,5.976L2.885,6.997L4.006,8.269L4.86,9.786L5.397,11.532L5.58,13.483L5.51,14.525L5.564,15.401L5.725,16.151L5.982,16.78L6.317,17.289L6.405,17.377L6.707,17.256L7.267,16.967L7.791,16.634L8.309,16.238L8.808,15.78L8.864,15.751L9.039,15.713L9.152,15.749L9.272,15.88L9.302,15.985L9.252,16.175L8.078,17.792L7.689,18.224L8.357,18.391L9.026,18.441L9.733,18.4L10.464,18.271L11.235,18.046L11.989,17.743L12.776,17.337L13.526,16.861L14.269,16.293L14.988,15.639L14.327,15.586L12.119,15.041L10.19,14.188L8.544,13.071L7.179,11.734L6.094,10.226L5.283,8.589L4.743,6.869L4.469,5.104L4.457,3.34L4.705,1.616L5.213,-0.027L5.976,-1.541L6.997,-2.885L8.269,-4.006L9.786,-4.86L11.532,-5.397L13.483,-5.58L14.525,-5.51L15.406,-5.565L16.152,-5.726L16.781,-5.983L17.289,-6.317L17.377,-6.405L17.256,-6.707L16.967,-7.267L16.636,-7.789L16.24,-8.307L15.78,-8.808L15.751,-8.864L15.713,-9.039L15.749,-9.152L15.88,-9.272L15.985,-9.301L16.175,-9.251L17.792,-8.078L18.224,-7.689L18.391,-8.358L18.441,-9.026L18.4,-9.737L18.271,-10.464L18.045,-11.239L17.743,-11.989L17.337,-12.776L16.863,-13.524L16.293,-14.269L15.639,-14.988L15.586,-14.327L15.041,-12.119L14.188,-10.19L13.071,-8.544L11.734,-7.179L10.226,-6.094L8.589,-5.283L6.869,-4.743L5.104,-4.469L3.34,-4.457L1.616,-4.705L-0.027,-5.213L-1.541,-5.976L-2.885,-6.997L-4.006,-8.269L-4.86,-9.785L-5.397,-11.532L-5.58,-13.483L-5.51,-14.525L-5.565,-15.409L-5.726,-16.152L-5.982,-16.78L-6.317,-17.289L-6.405,-17.377L-6.707,-17.256L-7.267,-16.967L-7.789,-16.636L-8.309,-16.238L-8.808,-15.78L-8.864,-15.751L-9.039,-15.713L-9.152,-15.749L-9.272,-15.88L-9.302,-15.985L-9.252,-16.175L-8.078,-17.792L-7.689,-18.224L-8.357,-18.391L-9.026,-18.441ZM6.904,17.82L7.12,17.964L7.538,17.5ZM10.781,17.501L10.315,17.637L9.926,17.706L9.357,17.137L9.797,16.517ZM-28.47,14.5L-25.375,17.595L-22.28,14.5L-25.375,11.405ZM13.483,16.047L13.363,16.167L13.155,16.326L12.455,16.771L11.713,17.154L11.05,17.42L12.633,15.837ZM4.367,17.077L4.17,17.05L4.303,16.917ZM-9.462,15.407L-9.988,15.462L-10.467,15.561L-10.884,15.696L-11.215,15.853L-11.421,16L-11.215,16.147L-10.883,16.305L-10.467,16.439L-9.988,16.538L-9.462,16.593L-8.911,16.599L-8.328,16.549L-8.127,16.511L-7.89,16.351L-7.19,15.999L-7.334,15.943L-7.925,15.628L-8.129,15.488L-8.328,15.451L-8.911,15.401ZM-3.572,15.451L-3.773,15.489L-4.01,15.649L-4.71,16.001L-4.566,16.057L-3.975,16.372L-3.771,16.512L-3.572,16.549L-2.989,16.599L-2.438,16.593L-1.912,16.538L-1.433,16.439L-1.017,16.305L-0.685,16.147L-0.479,16L-0.685,15.853L-1.016,15.696L-1.433,15.561L-1.912,15.462L-2.438,15.407L-2.989,15.401ZM-13.255,15.215L-13.331,16.199L-14.06,15.47L-13.996,14.619L-13.968,14.502ZM0.973,16.003L0.949,15.979L0.949,15.89ZM7.25,13.97L7.885,13.335L8.179,13.609L8.472,13.808L7.78,14.5L8.494,15.214L8.368,15.301L7.926,15.706L7.25,15.03L6.344,15.936L6.21,15.31L6.193,15.027L6.72,14.5L6.199,13.979L6.227,13.422L6.178,12.898ZM0,13.97L0.815,13.155L0.909,14.121L0.53,14.5L0.877,14.847L0.908,15.622L0.765,15.349L0.457,15.013L-0.011,14.677L-0.635,14.395L-1.258,13.772L-0.996,13.253L-0.922,13.048ZM-9.778,12.377L-9.656,12.723L-9.451,13.124L-9.193,13.516L-8.853,13.935L-8.462,14.335L-8.019,14.708L-7.854,14.82L-7.57,14.876L-6.828,15.122L-6.889,14.981L-7.083,14.341L-7.13,14.097L-7.241,13.932L-7.613,13.49L-8.012,13.1L-8.431,12.759L-8.824,12.5L-9.227,12.294L-9.573,12.172L-9.82,12.13ZM-2.327,12.172L-2.673,12.294L-3.076,12.5L-3.469,12.759L-3.888,13.1L-4.287,13.49L-4.659,13.932L-4.77,14.096L-4.826,14.38L-5.072,15.122L-4.931,15.061L-4.291,14.867L-4.047,14.82L-3.881,14.708L-3.438,14.335L-3.047,13.935L-2.707,13.516L-2.449,13.124L-2.244,12.723L-2.122,12.377L-2.08,12.13ZM18.622,-12.38L18.965,-11.521L19.212,-10.661L19.36,-9.811L19.404,-8.98L19.338,-8.178L19.155,-7.419L18.982,-7.006L19.22,-6.79L20.459,-5.408L21.51,-3.953L22.375,-2.444L23.049,-0.901L23.539,0.653L23.842,2.202L23.96,3.722L23.888,5.195L23.631,6.603L23.184,7.921L22.549,9.128L21.727,10.201L20.717,11.119L19.524,11.856L18.153,12.392L16.572,12.708L14.838,12.574L13.299,12.194L11.954,11.6L10.808,10.822L9.857,9.891L9.101,8.841L8.535,7.701L8.158,6.502L7.967,5.273L7.958,4.043L8.13,2.842L8.484,1.699L9.014,0.645L9.724,-0.291L10.607,-1.071L11.66,-1.665L12.876,-2.039L14.235,-2.168L14.966,-2.118L15.59,-2.157L16.115,-2.271L16.564,-2.453L16.927,-2.692L17.222,-2.986L17.45,-3.328L17.614,-3.722L17.713,-4.145L17.746,-4.614L17.718,-5.124L17.666,-5.416L17.186,-5.11L16.396,-4.795L15.497,-4.606L14.488,-4.547L13.453,-4.618L11.676,-4.445L10.123,-3.957L8.788,-3.195L7.675,-2.2L6.772,-0.997L6.094,0.363L5.638,1.862L5.415,3.44L5.431,5.056L5.69,6.689L6.188,8.26L6.937,9.762L7.931,11.132L9.182,12.349L10.695,13.367L12.464,14.142L14.515,14.64L16.823,14.815L18.848,14.395L20.66,13.68L22.22,12.708L23.54,11.499L24.609,10.096L25.44,8.502L26.03,6.745L26.369,4.871L26.462,2.876L26.3,0.811L25.883,-1.303L25.216,-3.411L24.284,-5.533L23.094,-7.608L21.651,-9.6L19.941,-11.503L18.329,-12.955ZM-6.097,10.735L-6.254,11.066L-6.389,11.481L-6.488,11.962L-6.543,12.486L-6.549,13.038L-6.499,13.622L-6.461,13.823L-6.301,14.06L-5.949,14.759L-5.893,14.616L-5.578,14.025L-5.438,13.821L-5.401,13.622L-5.351,13.038L-5.357,12.486L-5.412,11.962L-5.511,11.481L-5.645,11.067L-5.803,10.735L-5.95,10.529ZM-12.825,13.143L-12.895,13.425L-13.966,14.496L-13.626,13.096L-12.159,11.629ZM16.199,13.331L15.47,14.06L14.619,13.996L14.502,13.968L15.215,13.255ZM13.143,12.825L13.425,12.895L14.496,13.966L13.097,13.627L11.632,12.162ZM-15.837,12.633L-16.047,13.483L-16.171,13.359L-16.328,13.154L-16.771,12.455L-17.155,11.71L-17.42,11.05ZM20.681,12.901L20.367,13.096L19.972,13.252L19.344,12.624L19.866,12.409L20.066,12.286ZM-18.848,-14.395L-20.66,-13.68L-22.218,-12.709L-23.54,-11.499L-24.609,-10.096L-25.44,-8.502L-26.03,-6.745L-26.369,-4.871L-26.462,-2.877L-26.3,-0.811L-25.883,1.302L-25.216,3.412L-24.286,5.53L-23.094,7.608L-21.651,9.6L-19.941,11.503L-18.329,12.955L-18.622,12.38L-18.965,11.521L-19.212,10.661L-19.36,9.811L-19.404,8.98L-19.338,8.178L-19.155,7.419L-18.982,7.006L-19.22,6.79L-20.459,5.408L-21.51,3.953L-22.374,2.444L-23.049,0.901L-23.539,-0.653L-23.842,-2.202L-23.96,-3.722L-23.888,-5.195L-23.631,-6.603L-23.184,-7.921L-22.549,-9.128L-21.727,-10.201L-20.717,-11.119L-19.524,-11.856L-18.153,-12.392L-16.572,-12.708L-14.838,-12.574L-13.299,-12.194L-11.954,-11.599L-10.808,-10.821L-9.857,-9.891L-9.101,-8.841L-8.535,-7.701L-8.158,-6.502L-7.966,-5.273L-7.958,-4.043L-8.13,-2.842L-8.484,-1.699L-9.014,-0.645L-9.723,0.291L-10.607,1.071L-11.66,1.665L-12.876,2.039L-14.235,2.168L-14.967,2.118L-15.589,2.157L-16.115,2.271L-16.564,2.453L-16.927,2.692L-17.224,2.988L-17.448,3.325L-17.612,3.718L-17.713,4.145L-17.746,4.614L-17.718,5.12L-17.666,5.416L-17.186,5.11L-16.396,4.795L-15.497,4.606L-14.488,4.547L-13.453,4.618L-11.676,4.445L-10.123,3.957L-8.788,3.195L-7.674,2.199L-6.772,0.997L-6.094,-0.363L-5.637,-1.862L-5.415,-3.44L-5.431,-5.056L-5.691,-6.694L-6.188,-8.26L-6.94,-9.767L-7.931,-11.132L-9.182,-12.349L-10.695,-13.367L-12.464,-14.142L-14.515,-14.64L-16.823,-14.815ZM-0.605,6.7L0.561,7.281L2.949,9.669L3.358,10.386L3.703,11.483L3.625,11.405L2.586,12.444L2.337,11.633L3.095,10.875L0,7.78L-0.553,8.333L-1.258,7.978L-0.53,7.25L-1.288,6.492ZM10.443,11.36L10.727,11.553L10.098,12.182L9.594,11.843L9.484,11.736L10.141,11.079ZM18.417,-6.082L18.185,-5.85L18.315,-5.165L18.344,-4.589L18.299,-4.032L18.172,-3.508L17.961,-3.019L17.664,-2.583L17.281,-2.21L16.815,-1.912L16.269,-1.694L15.646,-1.562L14.945,-1.521L14.218,-1.571L12.962,-1.449L11.872,-1.106L10.934,-0.57L10.141,0.137L9.507,0.983L9.03,1.94L8.709,2.994L8.552,4.105L8.564,5.243L8.745,6.389L9.097,7.498L9.623,8.552L10.323,9.519L11.203,10.374L12.269,11.09L13.512,11.635L14.958,11.987L15.621,12.037L15.474,11.902L15.229,11.549L15.028,11.12L14.871,10.628L14.76,10.079L14.699,9.485L14.7,9.088L14.394,9.393L13.929,9.767L13.457,10.075L12.987,10.311L12.525,10.47L12.075,10.536L11.764,10.51L11.689,10.475L11.475,10.261L11.44,10.183L11.42,9.786L11.496,9.363L11.657,8.918L11.895,8.46L12.204,7.992L12.58,7.53L12.862,7.249L12.43,7.249L11.837,7.184L11.285,7.069L10.786,6.904L10.346,6.689L9.983,6.417L9.781,6.179L9.752,6.101L9.752,5.799L9.782,5.719L10.048,5.424L10.401,5.179L10.83,4.978L11.322,4.821L11.871,4.71L12.465,4.649L12.862,4.65L12.557,4.344L12.183,3.879L11.875,3.407L11.639,2.937L11.48,2.475L11.414,2.025L11.44,1.714L11.475,1.639L11.689,1.425L11.767,1.39L12.164,1.37L12.587,1.446L13.032,1.607L13.49,1.845L13.958,2.154L14.42,2.53L14.701,2.812L14.701,2.38L14.766,1.787L14.881,1.235L15.046,0.736L15.261,0.296L15.533,-0.067L15.771,-0.269L15.849,-0.298L16.151,-0.298L16.231,-0.268L16.526,-0.002L16.771,0.351L16.972,0.78L17.129,1.272L17.24,1.821L17.301,2.415L17.3,2.812L17.606,2.507L18.071,2.133L18.543,1.825L19.013,1.589L19.476,1.43L19.925,1.364L20.236,1.39L20.311,1.425L20.525,1.639L20.56,1.717L20.581,2.114L20.504,2.537L20.343,2.982L20.105,3.44L19.796,3.908L19.42,4.37L19.138,4.651L19.57,4.651L20.164,4.716L20.715,4.831L21.214,4.996L21.654,5.211L22.017,5.483L22.22,5.721L22.249,5.799L22.249,6.101L22.219,6.181L21.952,6.476L21.599,6.721L21.17,6.922L20.678,7.079L20.129,7.19L19.535,7.251L19.138,7.25L19.443,7.556L19.817,8.021L20.125,8.493L20.361,8.963L20.52,9.426L20.586,9.875L20.56,10.186L20.525,10.261L20.311,10.475L20.233,10.51L19.836,10.531L19.413,10.454L18.968,10.293L18.51,10.055L18.042,9.746L17.58,9.37L17.299,9.088L17.299,9.52L17.234,10.114L17.119,10.665L16.954,11.164L16.739,11.604L16.467,11.967L16.322,12.091L16.577,12.11L18.003,11.813L19.28,11.309L20.376,10.626L21.302,9.78L22.063,8.779L22.645,7.664L23.059,6.432L23.298,5.11L23.362,3.713L23.248,2.262L22.956,0.779L22.489,-0.698L21.832,-2.192L20.999,-3.645L19.985,-5.046L18.786,-6.379L18.686,-6.47ZM-3.625,10.345L-2.744,9.464L-2.182,9.636L-1.964,9.744L-3.095,10.875L-2.998,10.972L-3.229,11.058L-3.762,11.331L-4.11,11.558L-4.251,10.971L-4.155,10.875L-4.341,10.689L-4.645,10.03L-4.89,9.677L-4.989,9.565L-5.284,9.299L-5.376,9.243L-5.188,9.213L-4.761,9.209ZM15.943,7.334L15.628,7.925L15.488,8.129L15.451,8.326L15.401,8.912L15.407,9.462L15.462,9.988L15.56,10.464L15.696,10.884L15.852,11.213L16,11.421L16.148,11.213L16.305,10.883L16.44,10.464L16.538,9.988L16.593,9.462L16.599,8.912L16.549,8.326L16.511,8.127L16.351,7.89L15.999,7.19ZM18.21,10.632L18.647,10.859L17.812,11.189L17.617,11.23L17.755,10.798L17.84,10.391ZM-16.517,9.797L-17.501,10.781L-17.637,10.315L-17.706,9.926L-17.137,9.357ZM-11.078,10.142L-11.359,10.443L-11.552,10.728L-12.182,10.098L-11.842,9.593L-11.736,9.484ZM29,6.72L29,7.78L26.131,10.649L26.928,9.121L27.097,8.623L28.47,7.25L27.711,6.491L27.875,5.595ZM24.305,9.275L24.06,9.744L23.91,9.94L23.219,9.249L23.585,8.555ZM14.981,6.889L14.341,7.083L14.097,7.13L13.932,7.241L13.49,7.613L13.097,8.015L12.757,8.434L12.5,8.824L12.294,9.227L12.172,9.573L12.13,9.82L12.377,9.778L12.723,9.656L13.126,9.45L13.519,9.191L13.938,8.85L14.337,8.46L14.709,8.018L14.82,7.854L14.876,7.57L15.122,6.828ZM16.939,6.969L17.133,7.609L17.18,7.853L17.291,8.018L17.663,8.46L18.062,8.85L18.481,9.191L18.874,9.45L19.277,9.656L19.623,9.778L19.87,9.82L19.828,9.573L19.706,9.227L19.5,8.824L19.243,8.434L18.903,8.015L18.51,7.613L18.068,7.241L17.904,7.13L17.62,7.074L16.878,6.828ZM-21.75,6.72L-20.909,5.879L-20.408,6.438L-21.22,7.25L-20.013,8.457L-20.053,9.014L-20.027,9.503L-21.75,7.78L-21.992,8.022L-22.437,7.407L-22.28,7.25L-22.913,6.617L-23.706,5.235L-24.075,4.395ZM7.25,6.72L7.496,6.474L7.538,6.697L7.953,7.99L8.439,8.969L7.25,7.78L6.867,8.163L6.793,8.015L6.591,7.379L6.72,7.25L6.471,7.001L6.324,6.538L6.184,5.654ZM22.045,7.408L21.816,7.846L21.75,7.78L20.914,8.616L20.669,8.138L20.536,7.934L20.741,7.729L21.446,7.511L21.97,7.255L22.135,7.14ZM-13.97,7.25L-13.335,7.885L-13.609,8.179L-13.808,8.472L-14.5,7.78L-15.214,8.494L-15.301,8.368L-15.706,7.926L-15.03,7.25L-15.936,6.344L-15.321,6.211L-15.027,6.193L-14.5,6.72L-13.979,6.199L-13.422,6.227L-12.898,6.178ZM-6.72,7.25L-6.474,7.496L-6.697,7.538L-7.99,7.953L-8.969,8.439L-7.78,7.25L-8.163,6.867L-8.015,6.793L-7.379,6.591L-7.25,6.72L-7.001,6.471L-6.541,6.325L-5.655,6.185ZM-17.964,7.12L-17.5,7.538L-17.82,6.904ZM12.488,5.357L11.962,5.412L11.483,5.511L11.066,5.646L10.735,5.803L10.529,5.95L10.735,6.097L11.067,6.255L11.483,6.389L11.962,6.488L12.488,6.543L13.039,6.549L13.622,6.499L13.823,6.461L14.06,6.301L14.76,5.949L14.616,5.893L14.025,5.578L13.821,5.438L13.622,5.401L13.039,5.351ZM18.378,5.401L18.177,5.439L17.94,5.599L17.24,5.951L17.384,6.007L17.975,6.322L18.179,6.462L18.378,6.499L18.961,6.549L19.512,6.543L20.038,6.488L20.517,6.389L20.933,6.255L21.265,6.097L21.471,5.95L21.265,5.803L20.934,5.646L20.517,5.511L20.038,5.412L19.512,5.357L18.961,5.351ZM-18.003,-11.813L-19.28,-11.309L-20.374,-10.628L-21.301,-9.781L-22.063,-8.78L-22.642,-7.67L-23.058,-6.436L-23.297,-5.114L-23.362,-3.712L-23.248,-2.267L-22.956,-0.78L-22.489,0.698L-21.834,2.188L-21,3.643L-19.986,5.044L-18.786,6.379L-18.686,6.47L-18.417,6.082L-18.185,5.85L-18.315,5.166L-18.344,4.59L-18.299,4.032L-18.172,3.508L-17.961,3.019L-17.664,2.583L-17.281,2.21L-16.815,1.912L-16.269,1.694L-15.646,1.562L-14.945,1.521L-14.218,1.571L-12.962,1.449L-11.872,1.106L-10.934,0.57L-10.141,-0.137L-9.507,-0.983L-9.03,-1.94L-8.709,-2.994L-8.552,-4.105L-8.563,-5.243L-8.746,-6.393L-9.097,-7.498L-9.623,-8.553L-10.324,-9.52L-11.203,-10.374L-12.269,-11.09L-13.512,-11.635L-14.958,-11.987L-15.621,-12.037L-15.474,-11.902L-15.229,-11.549L-15.028,-11.12L-14.871,-10.628L-14.76,-10.079L-14.699,-9.485L-14.7,-9.088L-14.394,-9.393L-13.929,-9.767L-13.457,-10.075L-12.987,-10.311L-12.525,-10.47L-12.075,-10.536L-11.764,-10.51L-11.689,-10.475L-11.475,-10.261L-11.44,-10.183L-11.42,-9.786L-11.496,-9.363L-11.657,-8.918L-11.895,-8.46L-12.204,-7.992L-12.58,-7.53L-12.862,-7.249L-12.43,-7.249L-11.836,-7.184L-11.285,-7.069L-10.786,-6.904L-10.346,-6.689L-9.983,-6.417L-9.78,-6.179L-9.751,-6.101L-9.751,-5.799L-9.781,-5.719L-10.048,-5.424L-10.401,-5.179L-10.83,-4.978L-11.322,-4.821L-11.871,-4.71L-12.465,-4.649L-12.862,-4.65L-12.557,-4.344L-12.183,-3.879L-11.875,-3.407L-11.639,-2.937L-11.48,-2.474L-11.414,-2.025L-11.44,-1.714L-11.475,-1.639L-11.689,-1.425L-11.767,-1.39L-12.164,-1.369L-12.587,-1.446L-13.032,-1.607L-13.49,-1.845L-13.958,-2.154L-14.42,-2.53L-14.701,-2.812L-14.701,-2.38L-14.766,-1.786L-14.881,-1.235L-15.046,-0.736L-15.261,-0.296L-15.533,0.067L-15.771,0.27L-15.849,0.299L-16.151,0.299L-16.231,0.269L-16.526,0.002L-16.771,-0.351L-16.972,-0.78L-17.129,-1.272L-17.24,-1.821L-17.301,-2.415L-17.3,-2.812L-17.606,-2.507L-18.071,-2.133L-18.543,-1.825L-19.013,-1.589L-19.475,-1.43L-19.925,-1.364L-20.236,-1.39L-20.311,-1.425L-20.525,-1.639L-20.56,-1.717L-20.58,-2.114L-20.504,-2.537L-20.343,-2.982L-20.105,-3.44L-19.796,-3.908L-19.42,-4.37L-19.138,-4.651L-19.57,-4.651L-20.163,-4.716L-20.715,-4.831L-21.214,-4.996L-21.654,-5.211L-22.017,-5.483L-22.219,-5.721L-22.248,-5.799L-22.248,-6.101L-22.218,-6.181L-21.952,-6.476L-21.599,-6.721L-21.17,-6.922L-20.678,-7.079L-20.129,-7.19L-19.535,-7.251L-19.138,-7.25L-19.443,-7.556L-19.817,-8.021L-20.125,-8.493L-20.361,-8.963L-20.52,-9.425L-20.586,-9.875L-20.56,-10.186L-20.525,-10.261L-20.311,-10.475L-20.233,-10.51L-19.836,-10.53L-19.413,-10.454L-18.968,-10.293L-18.51,-10.055L-18.042,-9.746L-17.58,-9.37L-17.299,-9.088L-17.299,-9.52L-17.234,-10.113L-17.119,-10.665L-16.954,-11.164L-16.739,-11.604L-16.467,-11.967L-16.321,-12.09L-16.577,-12.11ZM-1.834,-5.396L-1.495,-5.225L-3.095,-3.625L0,-0.53L3.095,-3.625L2.849,-3.871L3.344,-3.807L4.344,-3.814L4.155,-3.625L5.626,-2.154L5.396,-1.834L5.225,-1.495L3.625,-3.095L0.53,0L3.625,3.095L3.871,2.849L3.807,3.344L3.814,4.344L3.625,4.155L2.154,5.626L1.834,5.396L1.495,5.225L3.095,3.625L0,0.53L-3.095,3.625L-2.849,3.871L-3.344,3.807L-4.344,3.814L-4.155,3.625L-5.626,2.154L-5.396,1.834L-5.225,1.495L-3.625,3.095L-0.53,0L-3.625,-3.095L-3.871,-2.849L-3.807,-3.344L-3.814,-4.344L-3.625,-4.155L-2.154,-5.626ZM10.875,3.095L10.972,2.998L11.058,3.229L11.331,3.762L11.558,4.11L10.971,4.251L10.875,4.155L10.689,4.341L10.03,4.645L9.677,4.89L9.565,4.989L9.299,5.284L9.243,5.376L9.214,5.19L9.209,4.761L10.345,3.625L9.464,2.744L9.636,2.182L9.744,1.964ZM-18.993,4.623L-18.974,5.004L-19.066,5.096L-19.557,4.527L-18.935,3.905ZM12.172,2.327L12.294,2.673L12.499,3.074L12.757,3.466L13.097,3.885L13.488,4.285L13.931,4.658L14.096,4.77L14.38,4.826L15.122,5.072L15.061,4.931L14.867,4.291L14.82,4.047L14.709,3.882L14.337,3.44L13.938,3.05L13.519,2.709L13.126,2.45L12.723,2.244L12.377,2.122L12.13,2.08ZM19.623,2.122L19.277,2.244L18.874,2.45L18.481,2.709L18.062,3.05L17.663,3.44L17.291,3.882L17.18,4.046L17.124,4.33L16.878,5.072L17.019,5.011L17.659,4.817L17.903,4.77L18.069,4.658L18.512,4.285L18.903,3.885L19.243,3.466L19.501,3.074L19.706,2.673L19.828,2.327L19.87,2.08ZM25.375,3.095L25.794,2.676L25.811,2.889L25.735,4.515L25.375,4.155L24.549,4.981L24.604,3.866L24.845,3.625L24.584,3.364L24.495,2.215ZM15.853,0.685L15.696,1.016L15.561,1.431L15.462,1.912L15.407,2.436L15.401,2.988L15.451,3.572L15.489,3.773L15.649,4.01L16.001,4.71L16.057,4.566L16.372,3.975L16.512,3.771L16.549,3.572L16.599,2.988L16.593,2.436L16.538,1.912L16.439,1.431L16.305,1.017L16.147,0.685L16,0.479ZM-16.917,4.303L-17.077,4.367L-17.05,4.17ZM-6.7,-0.604L-7.281,0.561L-9.669,2.949L-10.386,3.358L-11.482,3.702L-11.405,3.625L-12.444,2.586L-11.633,2.337L-10.875,3.095L-7.78,0L-8.333,-0.553L-7.978,-1.258L-7.25,-0.53L-6.492,-1.288ZM-20.985,-1.179L-20.771,-0.965L-20.511,-0.801L-20.438,-0.782L-21.22,0L-18.523,2.697L-18.804,3.355L-18.828,3.452L-21.75,0.53L-21.821,0.601L-21.879,0.47L-22.325,-0.942L-22.365,-1.145L-21.75,-0.53L-21.032,-1.248ZM-23.261,2.041L-24.545,3.325L-24.605,3.187L-24.812,2.532L-23.583,1.303ZM-27.894,-0.576L-28.47,0L-27.614,0.856L-27.445,1.701L-27.268,2.262L-29,0.53L-29,-0.53L-27.974,-1.556ZM29,-0.53L29,0.53L27.974,1.556L27.894,0.576L28.47,0L27.614,-0.856L27.445,-1.701L27.268,-2.262ZM11.405,-3.625L12.444,-2.586L11.633,-2.337L10.875,-3.095L7.78,0L8.333,0.553L7.978,1.258L7.25,0.53L6.492,1.288L6.7,0.605L7.281,-0.561L9.669,-2.949L10.386,-3.358L11.482,-3.702ZM15.544,-0.878L15.35,-0.765L15.013,-0.457L14.677,0.011L14.395,0.635L13.772,1.258L13.253,0.996L13.048,0.922L13.97,0L13.156,-0.814L14.122,-0.908L14.5,-0.53L14.847,-0.877L15.641,-0.911ZM21.75,-0.53L21.821,-0.601L21.879,-0.469L22.324,0.937L22.365,1.145L21.75,0.53L21.032,1.248L20.985,1.179L20.771,0.965L20.511,0.801L20.438,0.782L21.22,0L18.523,-2.697L18.804,-3.355L18.828,-3.452ZM-16.003,0.973L-15.979,0.949L-15.89,0.949ZM-13.253,-0.996L-13.048,-0.922L-13.97,0L-13.156,0.814L-14.122,0.908L-14.5,0.53L-14.847,0.877L-15.622,0.908L-15.349,0.765L-15.013,0.457L-14.677,-0.011L-14.395,-0.635L-13.772,-1.258ZM-16.057,-4.566L-16.372,-3.975L-16.512,-3.771L-16.549,-3.574L-16.599,-2.988L-16.593,-2.438L-16.538,-1.912L-16.44,-1.436L-16.304,-1.016L-16.147,-0.685L-16,-0.479L-15.853,-0.685L-15.695,-1.017L-15.56,-1.436L-15.462,-1.912L-15.407,-2.438L-15.401,-2.988L-15.451,-3.574L-15.489,-3.773L-15.649,-4.01L-16.001,-4.71ZM15.978,-0.948L15.885,-0.948L16.003,-0.973ZM24.605,-3.186L24.812,-2.532L23.583,-1.303L23.261,-2.041L24.544,-3.324ZM-9.213,-5.189L-9.208,-4.762L-10.345,-3.625L-9.464,-2.744L-9.636,-2.182L-9.744,-1.964L-10.875,-3.095L-10.972,-2.998L-11.058,-3.229L-11.331,-3.762L-11.558,-4.11L-10.971,-4.251L-10.875,-4.155L-10.689,-4.341L-10.03,-4.645L-9.677,-4.89L-9.566,-4.988L-9.299,-5.283L-9.242,-5.376ZM-17.019,-5.011L-17.659,-4.817L-17.903,-4.77L-18.068,-4.659L-18.51,-4.287L-18.903,-3.885L-19.243,-3.466L-19.5,-3.076L-19.706,-2.673L-19.828,-2.327L-19.87,-2.08L-19.623,-2.122L-19.277,-2.244L-18.874,-2.45L-18.481,-2.709L-18.062,-3.05L-17.663,-3.44L-17.291,-3.882L-17.18,-4.046L-17.124,-4.33L-16.878,-5.072ZM-15.061,-4.931L-14.867,-4.291L-14.82,-4.047L-14.709,-3.882L-14.337,-3.44L-13.938,-3.05L-13.519,-2.709L-13.126,-2.45L-12.723,-2.244L-12.377,-2.122L-12.13,-2.08L-12.172,-2.327L-12.294,-2.673L-12.5,-3.076L-12.757,-3.466L-13.097,-3.885L-13.49,-4.287L-13.932,-4.659L-14.096,-4.77L-14.38,-4.826L-15.122,-5.072ZM-24.604,-3.866L-24.845,-3.625L-24.584,-3.364L-24.495,-2.215L-25.375,-3.095L-25.794,-2.676L-25.811,-2.89L-25.735,-4.515L-25.375,-4.155L-24.549,-4.981ZM19.558,-4.528L18.935,-3.905L18.993,-4.622L18.974,-5.004L19.066,-5.096ZM17.051,-4.169L16.917,-4.303L17.077,-4.367ZM29,-28.47L25.905,-25.375L29,-22.28L29,-21.22L25.905,-18.125L29,-15.03L29,-13.97L25.905,-10.875L29,-7.78L29,-6.72L26.583,-4.303L26.26,-5.04L28.47,-7.25L25.375,-10.345L24.056,-9.026L23.611,-9.641L24.845,-10.875L21.75,-13.97L20.735,-12.955L20.178,-13.458L21.22,-14.5L18.125,-17.595L16.711,-16.181L16.394,-16.333L16.424,-16.954L17.595,-18.125L15.636,-20.084L15.112,-21.397L14.541,-22.321L17.595,-25.375L14.5,-28.47L11.552,-25.522L10.945,-25.975L13.97,-29L15.03,-29L18.125,-25.905L21.22,-29L22.28,-29L25.375,-25.905L28.47,-29L29,-29ZM21.75,-7.78L21.992,-8.022L22.437,-7.407L22.28,-7.25L22.912,-6.618L23.704,-5.238L24.073,-4.397L21.75,-6.72L20.909,-5.879L20.408,-6.438L21.22,-7.25L20.013,-8.457L20.053,-9.014L20.027,-9.503ZM-19.512,-6.543L-20.038,-6.488L-20.517,-6.389L-20.934,-6.254L-21.265,-6.097L-21.471,-5.95L-21.265,-5.803L-20.933,-5.645L-20.517,-5.511L-20.038,-5.412L-19.512,-5.357L-18.961,-5.351L-18.378,-5.401L-18.177,-5.439L-17.94,-5.599L-17.24,-5.951L-17.384,-6.007L-17.975,-6.322L-18.179,-6.462L-18.378,-6.499L-18.961,-6.549ZM-13.622,-6.499L-13.823,-6.461L-14.06,-6.301L-14.76,-5.949L-14.616,-5.893L-14.025,-5.578L-13.821,-5.438L-13.622,-5.401L-13.039,-5.351L-12.488,-5.357L-11.962,-5.412L-11.483,-5.511L-11.067,-5.645L-10.735,-5.803L-10.529,-5.95L-10.735,-6.097L-11.066,-6.254L-11.483,-6.389L-11.962,-6.488L-12.488,-6.543L-13.039,-6.549ZM0.811,-26.3L-1.303,-25.883L-3.414,-25.215L-5.53,-24.286L-7.61,-23.093L-9.6,-21.651L-11.503,-19.941L-12.956,-18.328L-12.38,-18.622L-11.521,-18.965L-10.661,-19.212L-9.811,-19.36L-8.98,-19.404L-8.178,-19.338L-7.419,-19.155L-7.006,-18.982L-6.79,-19.22L-5.408,-20.459L-3.953,-21.51L-2.444,-22.374L-0.901,-23.049L0.653,-23.539L2.202,-23.842L3.722,-23.96L5.195,-23.888L6.603,-23.631L7.921,-23.184L9.128,-22.549L10.201,-21.727L11.119,-20.717L11.856,-19.524L12.392,-18.153L12.708,-16.572L12.574,-14.838L12.194,-13.299L11.599,-11.954L10.821,-10.808L9.891,-9.857L8.841,-9.101L7.701,-8.535L6.502,-8.158L5.273,-7.967L4.043,-7.958L2.842,-8.13L1.699,-8.484L0.645,-9.014L-0.291,-9.723L-1.071,-10.607L-1.665,-11.66L-2.039,-12.876L-2.168,-14.235L-2.118,-14.967L-2.157,-15.589L-2.271,-16.115L-2.453,-16.564L-2.693,-16.928L-2.988,-17.224L-3.325,-17.448L-3.718,-17.612L-4.145,-17.713L-4.614,-17.746L-5.12,-17.718L-5.416,-17.666L-5.11,-17.186L-4.795,-16.396L-4.606,-15.497L-4.547,-14.488L-4.618,-13.453L-4.445,-11.676L-3.957,-10.123L-3.195,-8.788L-2.2,-7.675L-0.997,-6.772L0.363,-6.094L1.862,-5.637L3.44,-5.415L5.056,-5.431L6.692,-5.691L8.26,-6.188L9.763,-6.937L11.132,-7.931L12.349,-9.182L13.367,-10.695L14.142,-12.464L14.64,-14.517L14.815,-16.823L14.395,-18.848L13.68,-20.66L12.709,-22.219L11.499,-23.54L10.096,-24.609L8.502,-25.44L6.745,-26.03L4.871,-26.369L2.876,-26.462ZM-26.928,-9.121L-27.097,-8.623L-28.47,-7.25L-27.711,-6.491L-27.875,-5.595L-29,-6.72L-29,-7.78L-26.131,-10.649ZM-7.25,-7.78L-6.867,-8.163L-6.794,-8.018L-6.591,-7.379L-6.72,-7.25L-6.471,-7.001L-6.325,-6.541L-6.185,-5.655L-7.25,-6.72L-7.496,-6.474L-7.538,-6.697L-7.953,-7.99L-8.439,-8.969ZM15.301,-8.368L15.706,-7.926L15.03,-7.25L15.936,-6.344L15.321,-6.211L15.027,-6.193L14.5,-6.72L13.979,-6.199L13.422,-6.227L12.898,-6.178L13.97,-7.25L13.335,-7.885L13.609,-8.179L13.808,-8.472L14.5,-7.78L15.214,-8.494ZM7.78,-7.25L8.163,-6.867L8.015,-6.793L7.379,-6.591L7.25,-6.72L7.001,-6.471L6.541,-6.325L5.655,-6.185L6.72,-7.25L6.474,-7.496L6.697,-7.538L7.99,-7.953L8.969,-8.439ZM-2.337,-11.633L-3.095,-10.875L0,-7.78L0.553,-8.333L1.258,-7.978L0.53,-7.25L1.288,-6.492L0.604,-6.7L-0.561,-7.281L-2.949,-9.669L-3.358,-10.386L-3.702,-11.482L-3.625,-11.405L-2.586,-12.444ZM-19.828,-9.573L-19.706,-9.227L-19.501,-8.826L-19.243,-8.434L-18.903,-8.015L-18.512,-7.615L-18.069,-7.242L-17.904,-7.13L-17.62,-7.074L-16.878,-6.828L-16.939,-6.969L-17.133,-7.609L-17.18,-7.853L-17.291,-8.018L-17.663,-8.46L-18.062,-8.85L-18.481,-9.191L-18.874,-9.45L-19.277,-9.656L-19.623,-9.778L-19.87,-9.82ZM-12.377,-9.778L-12.723,-9.656L-13.126,-9.45L-13.519,-9.191L-13.938,-8.85L-14.337,-8.46L-14.709,-8.018L-14.82,-7.854L-14.876,-7.57L-15.122,-6.828L-14.981,-6.889L-14.341,-7.083L-14.097,-7.13L-13.931,-7.242L-13.488,-7.615L-13.097,-8.015L-12.757,-8.434L-12.499,-8.826L-12.294,-9.227L-12.172,-9.573L-12.13,-9.82ZM17.82,-6.904L17.964,-7.12L17.5,-7.538ZM-20.669,-8.138L-20.536,-7.934L-20.741,-7.729L-21.446,-7.511L-21.97,-7.255L-22.134,-7.141L-22.042,-7.416L-21.817,-7.847L-21.75,-7.78L-20.914,-8.616ZM-16.147,-11.215L-16.304,-10.884L-16.439,-10.469L-16.538,-9.988L-16.593,-9.464L-16.599,-8.912L-16.549,-8.328L-16.511,-8.127L-16.351,-7.89L-15.999,-7.19L-15.943,-7.334L-15.628,-7.925L-15.488,-8.13L-15.451,-8.328L-15.401,-8.912L-15.407,-9.464L-15.462,-9.988L-15.561,-10.469L-15.696,-10.884L-15.853,-11.215L-16,-11.421ZM2.262,-23.248L0.779,-22.956L-0.7,-22.488L-2.192,-21.832L-3.645,-20.999L-5.044,-19.986L-6.379,-18.786L-6.47,-18.686L-6.082,-18.417L-5.85,-18.185L-5.166,-18.315L-4.59,-18.344L-4.032,-18.299L-3.508,-18.172L-3.019,-17.961L-2.583,-17.664L-2.21,-17.281L-1.912,-16.815L-1.694,-16.269L-1.562,-15.646L-1.521,-14.945L-1.571,-14.218L-1.449,-12.962L-1.107,-11.875L-0.57,-10.934L0.137,-10.141L0.983,-9.507L1.94,-9.03L2.994,-8.709L4.105,-8.552L5.243,-8.564L6.391,-8.746L7.498,-9.097L8.553,-9.623L9.519,-10.323L10.374,-11.203L11.09,-12.269L11.635,-13.512L11.987,-14.96L12.037,-15.621L11.902,-15.474L11.549,-15.229L11.12,-15.028L10.628,-14.871L10.079,-14.76L9.485,-14.699L9.088,-14.7L9.393,-14.394L9.767,-13.929L10.075,-13.457L10.311,-12.987L10.47,-12.525L10.536,-12.075L10.51,-11.764L10.475,-11.689L10.261,-11.475L10.183,-11.44L9.786,-11.42L9.363,-11.496L8.918,-11.657L8.46,-11.895L7.992,-12.204L7.53,-12.58L7.249,-12.862L7.249,-12.43L7.184,-11.837L7.069,-11.285L6.904,-10.786L6.689,-10.346L6.417,-9.983L6.179,-9.78L6.101,-9.751L5.799,-9.751L5.719,-9.781L5.424,-10.048L5.179,-10.401L4.978,-10.83L4.821,-11.322L4.71,-11.871L4.649,-12.465L4.65,-12.862L4.344,-12.557L3.879,-12.183L3.407,-11.875L2.937,-11.639L2.474,-11.48L2.025,-11.414L1.714,-11.44L1.639,-11.475L1.425,-11.689L1.39,-11.767L1.369,-12.164L1.446,-12.587L1.607,-13.032L1.845,-13.49L2.154,-13.958L2.53,-14.42L2.812,-14.701L2.38,-14.701L1.786,-14.766L1.235,-14.881L0.736,-15.046L0.296,-15.261L-0.067,-15.533L-0.27,-15.771L-0.299,-15.849L-0.299,-16.151L-0.269,-16.231L-0.002,-16.526L0.351,-16.771L0.78,-16.972L1.272,-17.129L1.821,-17.24L2.415,-17.301L2.812,-17.3L2.507,-17.606L2.133,-18.071L1.825,-18.543L1.589,-19.013L1.43,-19.475L1.364,-19.925L1.39,-20.236L1.425,-20.311L1.639,-20.525L1.717,-20.56L2.114,-20.58L2.537,-20.504L2.982,-20.343L3.44,-20.105L3.908,-19.796L4.37,-19.42L4.651,-19.138L4.651,-19.57L4.716,-20.163L4.831,-20.715L4.996,-21.214L5.211,-21.654L5.483,-22.017L5.721,-22.219L5.799,-22.248L6.101,-22.248L6.181,-22.218L6.476,-21.952L6.721,-21.599L6.922,-21.17L7.079,-20.678L7.19,-20.129L7.251,-19.535L7.25,-19.138L7.556,-19.443L8.021,-19.817L8.493,-20.125L8.963,-20.361L9.425,-20.52L9.875,-20.586L10.186,-20.56L10.261,-20.525L10.475,-20.311L10.51,-20.233L10.53,-19.836L10.454,-19.413L10.293,-18.968L10.055,-18.51L9.746,-18.042L9.37,-17.58L9.088,-17.299L9.52,-17.299L10.113,-17.234L10.665,-17.119L11.164,-16.954L11.604,-16.739L11.967,-16.467L12.09,-16.321L12.11,-16.577L11.813,-18.003L11.309,-19.281L10.626,-20.376L9.78,-21.302L8.78,-22.063L7.666,-22.644L6.432,-23.059L5.114,-23.297L3.712,-23.362ZM-23.219,-9.249L-23.585,-8.555L-24.305,-9.275L-24.06,-9.744L-23.91,-9.94ZM4.251,-10.971L4.155,-10.875L4.341,-10.689L4.645,-10.03L4.89,-9.677L4.988,-9.566L5.283,-9.299L5.375,-9.243L5.188,-9.213L4.761,-9.209L3.625,-10.345L2.744,-9.464L2.182,-9.636L1.964,-9.744L3.095,-10.875L2.998,-10.972L3.229,-11.058L3.762,-11.331L4.11,-11.558ZM17.637,-10.318L17.706,-9.926L17.136,-9.356L16.516,-9.796L17.501,-10.781ZM12.182,-10.098L11.843,-9.594L11.736,-9.484L11.078,-10.142L11.359,-10.443L11.552,-10.728ZM-17.755,-10.798L-17.84,-10.391L-18.21,-10.632L-18.647,-10.859L-17.812,-11.189L-17.617,-11.23ZM5.893,-14.616L5.578,-14.025L5.438,-13.821L5.401,-13.624L5.351,-13.038L5.357,-12.488L5.412,-11.962L5.51,-11.486L5.645,-11.067L5.803,-10.735L5.95,-10.529L6.097,-10.735L6.254,-11.066L6.39,-11.486L6.488,-11.962L6.543,-12.488L6.549,-13.038L6.499,-13.624L6.461,-13.823L6.301,-14.06L5.949,-14.76ZM-4.303,-26.583L-5.04,-26.26L-7.25,-28.47L-10.345,-25.375L-9.026,-24.056L-9.641,-23.611L-10.875,-24.845L-13.97,-21.75L-12.955,-20.735L-13.458,-20.178L-14.5,-21.22L-17.595,-18.125L-16.181,-16.711L-16.333,-16.394L-16.954,-16.424L-18.125,-17.595L-20.084,-15.636L-21.397,-15.112L-22.321,-14.541L-25.375,-17.595L-28.47,-14.5L-25.522,-11.552L-25.975,-10.945L-29,-13.97L-29,-15.03L-25.905,-18.125L-29,-21.22L-29,-22.28L-25.905,-25.375L-29,-28.47L-29,-29L-28.47,-29L-25.375,-25.905L-22.28,-29L-21.22,-29L-18.125,-25.905L-15.03,-29L-13.97,-29L-10.875,-25.905L-7.78,-29L-6.72,-29ZM16.172,-13.358L16.325,-13.158L16.771,-12.455L17.152,-11.716L17.42,-11.05L15.837,-12.633L16.047,-13.483ZM-9.594,-11.843L-9.484,-11.736L-10.142,-11.078L-10.443,-11.359L-10.728,-11.552L-10.098,-12.182ZM22.28,-14.5L25.375,-11.405L28.47,-14.5L25.375,-17.595ZM13.626,-13.096L12.159,-11.629L12.825,-13.143L12.895,-13.425L13.966,-14.496ZM4.931,-15.061L4.291,-14.867L4.047,-14.82L3.882,-14.709L3.44,-14.337L3.047,-13.935L2.707,-13.516L2.45,-13.126L2.244,-12.723L2.123,-12.38L2.08,-12.13L2.327,-12.172L2.673,-12.294L3.076,-12.5L3.469,-12.759L3.888,-13.1L4.287,-13.49L4.659,-13.932L4.77,-14.096L4.826,-14.38L5.072,-15.122ZM6.889,-14.981L7.083,-14.341L7.13,-14.097L7.241,-13.932L7.613,-13.49L8.012,-13.1L8.431,-12.759L8.824,-12.5L9.227,-12.294L9.573,-12.172L9.82,-12.13L9.777,-12.38L9.656,-12.723L9.45,-13.126L9.193,-13.516L8.853,-13.935L8.46,-14.337L8.018,-14.709L7.854,-14.82L7.57,-14.876L6.828,-15.122ZM-13.097,-13.627L-11.629,-12.159L-13.143,-12.825L-13.425,-12.895L-14.496,-13.966ZM-19.344,-12.624L-19.866,-12.409L-20.066,-12.286L-20.681,-12.901L-20.367,-13.096L-19.972,-13.252ZM-6.211,-15.322L-6.193,-15.027L-6.72,-14.5L-6.199,-13.979L-6.227,-13.422L-6.178,-12.898L-7.25,-13.97L-7.885,-13.335L-8.179,-13.609L-8.472,-13.808L-7.78,-14.5L-8.494,-15.214L-8.368,-15.301L-7.927,-15.707L-7.25,-15.03L-6.344,-15.936ZM-0.879,-15.544L-0.765,-15.349L-0.457,-15.013L0.011,-14.677L0.635,-14.395L1.258,-13.772L0.996,-13.253L0.922,-13.048L0,-13.97L-0.814,-13.156L-0.908,-14.122L-0.53,-14.5L-0.877,-14.847L-0.91,-15.635ZM-14.619,-13.996L-14.502,-13.968L-15.215,-13.255L-16.199,-13.331L-15.47,-14.06ZM14.06,-15.47L13.996,-14.621L13.967,-14.503L13.255,-15.215L13.331,-16.199ZM-24.845,-18.125L-21.75,-15.03L-18.655,-18.125L-21.75,-21.22ZM18.655,-18.125L21.75,-15.03L24.845,-18.125L21.75,-21.22ZM2.438,-16.593L1.912,-16.538L1.433,-16.439L1.016,-16.304L0.685,-16.147L0.479,-16L0.685,-15.853L1.017,-15.695L1.433,-15.561L1.912,-15.462L2.438,-15.407L2.989,-15.401L3.572,-15.451L3.773,-15.489L4.01,-15.649L4.71,-16.001L4.566,-16.057L3.975,-16.372L3.771,-16.512L3.572,-16.549L2.989,-16.599ZM8.328,-16.549L8.127,-16.511L7.89,-16.351L7.19,-15.999L7.334,-15.943L7.925,-15.628L8.129,-15.488L8.328,-15.451L8.911,-15.401L9.462,-15.407L9.988,-15.462L10.467,-15.561L10.884,-15.696L11.215,-15.853L11.421,-16L11.215,-16.147L10.883,-16.305L10.467,-16.439L9.988,-16.538L9.462,-16.593L8.911,-16.599ZM-12.633,-15.837L-13.483,-16.047L-13.36,-16.17L-13.153,-16.328L-12.455,-16.771L-11.713,-17.154L-11.05,-17.42ZM-0.949,-15.979L-0.949,-15.89L-0.973,-16.003ZM-9.357,-17.137L-9.797,-16.517L-10.781,-17.501L-10.315,-17.637L-9.926,-17.706ZM2.122,-19.623L2.244,-19.277L2.449,-18.876L2.707,-18.484L3.047,-18.065L3.438,-17.665L3.881,-17.292L4.046,-17.18L4.33,-17.124L5.072,-16.878L5.011,-17.019L4.817,-17.659L4.77,-17.903L4.659,-18.068L4.287,-18.51L3.888,-18.9L3.469,-19.241L3.076,-19.5L2.673,-19.706L2.327,-19.828L2.08,-19.87ZM9.573,-19.828L9.227,-19.706L8.824,-19.5L8.431,-19.241L8.012,-18.9L7.613,-18.51L7.241,-18.068L7.13,-17.904L7.074,-17.62L6.828,-16.878L6.969,-16.939L7.609,-17.133L7.853,-17.18L8.019,-17.292L8.462,-17.665L8.853,-18.065L9.193,-18.484L9.451,-18.876L9.656,-19.277L9.778,-19.623L9.82,-19.87ZM-4.17,-17.05L-4.303,-16.917L-4.367,-17.077ZM5.803,-21.265L5.645,-20.933L5.511,-20.519L5.412,-20.038L5.357,-19.514L5.351,-18.962L5.401,-18.378L5.438,-18.179L5.599,-17.94L5.951,-17.24L6.007,-17.384L6.322,-17.975L6.462,-18.179L6.499,-18.378L6.549,-18.962L6.543,-19.514L6.488,-20.038L6.389,-20.519L6.254,-20.934L6.097,-21.265L5.95,-21.471ZM-7.538,-17.5L-6.904,-17.82L-7.12,-17.964ZM11.189,-17.814L11.23,-17.617L10.798,-17.755L10.391,-17.84L10.632,-18.21L10.86,-18.648ZM0.53,-21.75L1.248,-21.032L1.179,-20.985L0.965,-20.771L0.801,-20.511L0.782,-20.438L0,-21.22L-2.697,-18.523L-3.355,-18.804L-3.452,-18.828L-0.53,-21.75L-0.601,-21.821L-0.471,-21.878L0.94,-22.325L1.145,-22.365ZM-28.47,-21.75L-25.375,-18.655L-22.28,-21.75L-25.375,-24.845ZM-21.22,-21.75L-18.125,-18.655L-15.03,-21.75L-18.125,-24.845ZM15.03,-21.75L18.125,-18.655L21.22,-21.75L18.125,-24.845ZM22.28,-21.75L25.375,-18.655L28.47,-21.75L25.375,-24.845ZM-3.905,-18.935L-4.623,-18.993L-5.004,-18.974L-5.096,-19.066L-4.528,-19.558ZM13.096,-20.367L13.252,-19.972L12.624,-19.344L12.409,-19.866L12.286,-20.066L12.901,-20.681ZM-6.72,-21.75L-5.879,-20.909L-6.438,-20.408L-7.25,-21.22L-8.457,-20.013L-9.014,-20.053L-9.503,-20.027L-7.78,-21.75L-8.022,-21.992L-7.407,-22.437L-7.25,-22.28L-6.617,-22.913L-5.235,-23.706L-4.396,-24.074ZM7.41,-22.044L7.847,-21.817L7.78,-21.75L8.616,-20.914L8.138,-20.669L7.934,-20.536L7.729,-20.741L7.511,-21.446L7.255,-21.97L7.14,-22.135ZM-24.845,-25.375L-21.75,-22.28L-18.655,-25.375L-21.75,-28.47ZM-17.595,-25.375L-14.5,-22.28L-11.405,-25.375L-14.5,-28.47ZM18.655,-25.375L21.75,-22.28L24.845,-25.375L21.75,-28.47ZM9.744,-24.06L9.94,-23.91L9.249,-23.219L8.555,-23.585L9.275,-24.305ZM-1.303,-23.583L-2.041,-23.261L-3.325,-24.545L-3.189,-24.604L-2.532,-24.812ZM4.515,-25.735L4.155,-25.375L4.981,-24.549L3.866,-24.604L3.625,-24.845L3.364,-24.584L2.215,-24.495L3.095,-25.375L2.676,-25.794L2.889,-25.811ZM10.649,-26.131L9.121,-26.928L8.623,-27.097L7.25,-28.47L6.491,-27.711L5.595,-27.875L6.72,-29L7.78,-29ZM1.555,-27.975L0.576,-27.894L0,-28.47L-0.856,-27.614L-1.701,-27.445L-2.262,-27.268L-0.53,-29L0.53,-29Z"/></pattern></defs><rect x="-75" y="-75" width="150" height="150" fill="#544d50"/><rect x="-75" y="-75" width="150" height="150" fill="url(#lace)"/></svg>